HIERARCHY
ROOT hip
{
  OFFSET 0.00112043 5.09927 -9.65472
  CHANNELS 6 Xposition Yposition Zposition Zrotation Xrotation Yrotation
  JOINT abdomen
  {
    OFFSET 0 -1.186 -1.5018
    CHANNELS 3 Zrotation Xrotation Yrotation
    JOINT abdomen2
    {
      OFFSET 0 9.964 0.2134
      CHANNELS 3 Zrotation Xrotation Yrotation
      JOINT chest
      {
        OFFSET 0 13.134 -3.2573
        CHANNELS 3 Zrotation Xrotation Yrotation
        JOINT neck
        {
          OFFSET 0 20.686 -1.6905
          CHANNELS 3 Zrotation Xrotation Yrotation
          JOINT head
          {
            OFFSET 0 7.238 -0.1237
            CHANNELS 3 Zrotation Xrotation Yrotation
            End Site
            {
              OFFSET 0 0 0
            }
          }
        }
        JOINT lCollar
        {
          OFFSET 1.7069 20.075 5.0056
          CHANNELS 3 Zrotation Xrotation Yrotation
          JOINT lShldr
          {
            OFFSET 13.6458 -0.047 -4.849
            CHANNELS 3 Zrotation Xrotation Yrotation
            JOINT lForeArm
            {
              OFFSET 28.3255 -0.9759 2.2888
              CHANNELS 3 Zrotation Xrotation Yrotation
              JOINT lHand
              {
                OFFSET 22.1583 -0.53 10.8316
                CHANNELS 3 Zrotation Xrotation Yrotation
                JOINT lThumb1
                {
                  OFFSET 0.786 0.112 2.5817
                  CHANNELS 3 Zrotation Xrotation Yrotation
                  JOINT lThumb2
                  {
                    OFFSET 0.3601 -0.878 4.2331
                    CHANNELS 3 Zrotation Xrotation Yrotation
                    JOINT lThumb2_End
                    {
                      OFFSET 1.8127 -1.216 2.2227
                      CHANNELS 3 Zrotation Xrotation Yrotation
                      End Site
                      {
                        OFFSET 0.0181 -0.0122 0.0222
                      }
                    }
                  }
                }
                JOINT lCarpal1
                {
                  OFFSET 0.9571 1.114 1.7695
                  CHANNELS 3 Zrotation Xrotation Yrotation
                  JOINT lIndex1
                  {
                    OFFSET 4.1246 0.487 4.1451
                    CHANNELS 3 Zrotation Xrotation Yrotation
                    JOINT lIndex2
                    {
                      OFFSET 3.4052 -1.454 2.7682
                      CHANNELS 3 Zrotation Xrotation Yrotation
                      JOINT lIndex2_End
                      {
                        OFFSET 1.4531 -1.795 1.2713
                        CHANNELS 3 Zrotation Xrotation Yrotation
                        End Site
                        {
                          OFFSET 0.0145 -0.0179 0.0127
                        }
                      }
                    }
                  }
                  JOINT lMid1
                  {
                    OFFSET 5.6954 0.21 2.1184
                    CHANNELS 3 Zrotation Xrotation Yrotation
                    JOINT lMid2
                    {
                      OFFSET 3.9766 -1.54 2.3863
                      CHANNELS 3 Zrotation Xrotation Yrotation
                      JOINT lMid2_End
                      {
                        OFFSET 1.4042 -1.926 1.125
                        CHANNELS 3 Zrotation Xrotation Yrotation
                        End Site
                        {
                          OFFSET 0.014 -0.0193 0.0113
                        }
                      }
                    }
                  }
                }
                JOINT lCarpal2
                {
                  OFFSET 2.0956 0.66 -0.3894
                  CHANNELS 3 Zrotation Xrotation Yrotation
                  JOINT lRing1
                  {
                    OFFSET 5.0395 -0.09 2.4971
                    CHANNELS 3 Zrotation Xrotation Yrotation
                    JOINT lRing2
                    {
                      OFFSET 3.7921 -1.552 1.4806
                      CHANNELS 3 Zrotation Xrotation Yrotation
                      JOINT lRing2_End
                      {
                        OFFSET 1.4655 -1.808 0.9609
                        CHANNELS 3 Zrotation Xrotation Yrotation
                        End Site
                        {
                          OFFSET 0.0147 -0.0181 0.0096
                        }
                      }
                    }
                  }
                  JOINT lPinky1
                  {
                    OFFSET 4.9141 -1.269 0.3591
                    CHANNELS 3 Zrotation Xrotation Yrotation
                    JOINT lPinky2
                    {
                      OFFSET 3.1477 -1.685 0.8462
                      CHANNELS 3 Zrotation Xrotation Yrotation
                      JOINT lPinky2_End
                      {
                        OFFSET 0.8055 -1.585 0.7955
                        CHANNELS 3 Zrotation Xrotation Yrotation
                        End Site
                        {
                          OFFSET 0.0081 -0.0158 0.008
                        }
                      }
                    }
                  }
                }
              }
            }
          }
        }
        JOINT rCollar
        {
          OFFSET -1.7069 20.075 5.0056
          CHANNELS 3 Zrotation Xrotation Yrotation
          JOINT rShldr
          {
            OFFSET -13.6458 -0.047 -4.849
            CHANNELS 3 Zrotation Xrotation Yrotation
            JOINT rForeArm
            {
              OFFSET -28.3255 -0.9759 2.2888
              CHANNELS 3 Zrotation Xrotation Yrotation
              JOINT rHand
              {
                OFFSET -22.1583 -0.53 10.8316
                CHANNELS 3 Zrotation Xrotation Yrotation
                JOINT rThumb1
                {
                  OFFSET -0.786 0.112 2.5817
                  CHANNELS 3 Zrotation Xrotation Yrotation
                  JOINT rThumb2
                  {
                    OFFSET -0.3601 -0.878 4.2331
                    CHANNELS 3 Zrotation Xrotation Yrotation
                    JOINT rThumb2_End
                    {
                      OFFSET -1.8127 -1.216 2.2227
                      CHANNELS 3 Zrotation Xrotation Yrotation
                      End Site
                      {
                        OFFSET -0.0181 -0.0122 0.0222
                      }
                    }
                  }
                }
                JOINT rCarpal1
                {
                  OFFSET -0.9571 1.114 1.7695
                  CHANNELS 3 Zrotation Xrotation Yrotation
                  JOINT rIndex1
                  {
                    OFFSET -4.1246 0.487 4.1451
                    CHANNELS 3 Zrotation Xrotation Yrotation
                    JOINT rIndex2
                    {
                      OFFSET -3.4052 -1.454 2.7682
                      CHANNELS 3 Zrotation Xrotation Yrotation
                      JOINT rIndex2_End
                      {
                        OFFSET -1.4531 -1.795 1.2713
                        CHANNELS 3 Zrotation Xrotation Yrotation
                        End Site
                        {
                          OFFSET -0.0145 -0.018 0.0127
                        }
                      }
                    }
                  }
                  JOINT rMid1
                  {
                    OFFSET -5.6954 0.21 2.1184
                    CHANNELS 3 Zrotation Xrotation Yrotation
                    JOINT rMid2
                    {
                      OFFSET -3.9766 -1.54 2.3863
                      CHANNELS 3 Zrotation Xrotation Yrotation
                      JOINT rMid2_End
                      {
                        OFFSET -1.4042 -1.926 1.125
                        CHANNELS 3 Zrotation Xrotation Yrotation
                        End Site
                        {
                          OFFSET -0.014 -0.0193 0.0113
                        }
                      }
                    }
                  }
                }
                JOINT rCarpal2
                {
                  OFFSET -2.0956 0.66 -0.3894
                  CHANNELS 3 Zrotation Xrotation Yrotation
                  JOINT rRing1
                  {
                    OFFSET -5.0395 -0.09 2.4971
                    CHANNELS 3 Zrotation Xrotation Yrotation
                    JOINT rRing2
                    {
                      OFFSET -3.7921 -1.552 1.4806
                      CHANNELS 3 Zrotation Xrotation Yrotation
                      JOINT rRing2_End
                      {
                        OFFSET -1.4655 -1.808 0.9609
                        CHANNELS 3 Zrotation Xrotation Yrotation
                        End Site
                        {
                          OFFSET -0.0147 -0.0181 0.0096
                        }
                      }
                    }
                  }
                  JOINT rPinky1
                  {
                    OFFSET -4.9141 -1.269 0.3592
                    CHANNELS 3 Zrotation Xrotation Yrotation
                    JOINT rPinky2
                    {
                      OFFSET -3.1477 -1.685 0.8462
                      CHANNELS 3 Zrotation Xrotation Yrotation
                      JOINT rPinky2_End
                      {
                        OFFSET -0.8055 -1.585 0.7955
                        CHANNELS 3 Zrotation Xrotation Yrotation
                        End Site
                        {
                          OFFSET -0.0081 -0.0158 0.008
                        }
                      }
                    }
                  }
                }
              }
            }
          }
        }
      }
    }
  }
  JOINT lThigh
  {
    OFFSET 8.367 -8.2066 0.5982
    CHANNELS 3 Zrotation Xrotation Yrotation
    JOINT lShin
    {
      OFFSET 2.1923 -43.463 -0.4932
      CHANNELS 3 Zrotation Xrotation Yrotation
      JOINT lFoot
      {
        OFFSET 0.7333 -45.8593 -2.6451
        CHANNELS 3 Zrotation Xrotation Yrotation
        End Site
        {
          OFFSET 2.6618 -4.2699 12.3931
        }
      }
    }
  }
  JOINT rThigh
  {
    OFFSET -8.367 -8.2066 0.5982
    CHANNELS 3 Zrotation Xrotation Yrotation
    JOINT rShin
    {
      OFFSET -2.1923 -43.463 -0.4931
      CHANNELS 3 Zrotation Xrotation Yrotation
      JOINT rFoot
      {
        OFFSET -0.7333 -45.8593 -2.6451
        CHANNELS 3 Zrotation Xrotation Yrotation
        End Site
        {
          OFFSET -2.6618 -4.2699 12.3931
        }
      }
    }
  }
}
MOTION
Frames:	4
Frame Time:	0.0333333
0 91.7903 2.51682 0 0 -0 0 0 -0 0 0 -0 0 0 -0 0 0 -0 0 0 -0 0 0 -0 1.66051 0.0835086 5.75766 -0.0175111 0.895433 15.7816 7.95139e-016 -1.98785e-016 -0 5.46658e-016 -3.97569e-016 -0 5.96354e-016 0 -0 3.97569e-016 1.98785e-016 9.54166e-015 1.49089e-016 -3.97569e-016 -0 6.4605e-016 0 3.18055e-015 5.96354e-016 0 3.18055e-015 8.94531e-016 -1.98785e-016 6.36111e-015 6.4605e-016 0 3.18055e-015 5.96354e-016 0 3.18055e-015 8.94531e-016 -1.98785e-016 6.36111e-015 1.49089e-016 -3.97569e-016 -0 6.4605e-016 0 3.18055e-015 5.96354e-016 0 3.18055e-015 8.94531e-016 -1.98785e-016 6.36111e-015 6.4605e-016 0 3.18055e-015 5.96354e-016 0 3.18055e-015 8.94531e-016 -1.98785e-016 6.36111e-015 0 0 -0 -1.4496 0.0636048 -5.0245 -1.74811 1.20616 -16.8394 -1.19271e-015 1.98785e-016 -3.18055e-015 -3.97569e-016 1.98785e-016 -3.18055e-015 -2.98177e-016 1.98785e-016 -3.18055e-015 -2.98177e-016 3.97569e-016 -0 4.96962e-016 0 -6.36111e-015 -9.93923e-017 3.97569e-016 -0 -8.94531e-016 5.96354e-016 -0 -3.97569e-016 3.97569e-016 -0 -9.93923e-017 3.97569e-016 -0 -8.94531e-016 5.96354e-016 -0 -3.97569e-016 3.97569e-016 -0 4.96962e-016 0 -6.36111e-015 -9.93923e-017 3.97569e-016 -0 -8.94531e-016 5.96354e-016 -0 -3.97569e-016 3.97569e-016 -0 -9.93923e-017 3.97569e-016 -0 -8.94531e-016 5.96354e-016 -0 -3.97569e-016 3.97569e-016 -0 -4.66111 -0.998717 0.12318 0.00986924 1.54847 0.176523 4.65186 -0.572283 -0.254274 4.66111 -0.998765 -0.123176 -0.00986867 1.54869 -0.176537 -4.65186 -0.572453 0.25427 
-0.716687 84.0931 5.68958 0 14.9982 -0 -0.608857 -3.57094 -0.315416 -1.24107 -7.1382 -0.67088 -1.24107 -7.1382 -0.67088 1.62479e-005 -0.361699 1.3944e-006 -2.00775e-007 -0.333971 8.11852e-009 2.24847 16.2019 -1.48777 -51.2685 -1.42306 -8.52229 -16.4808 30.8226 -57.8908 -7.23233 6.64166 9.6789 -4.35899e-007 5.08224e-007 5.21538e-007 -4.35899e-007 5.08224e-007 5.21538e-007 -4.35899e-007 5.08224e-007 5.21538e-007 -9.54166e-015 -6.36111e-015 1.59028e-015 -4.35899e-007 5.08224e-007 5.21538e-007 -4.35899e-007 5.08224e-007 5.21538e-007 -4.35899e-007 5.08224e-007 5.21538e-007 -4.35899e-007 5.08224e-007 5.21538e-007 -4.35899e-007 5.08224e-007 5.21538e-007 -4.35899e-007 5.08224e-007 5.21538e-007 -9.54166e-015 -6.36111e-015 1.59028e-015 -4.35899e-007 5.08224e-007 5.21538e-007 -4.35899e-007 5.08224e-007 5.21538e-007 -4.35899e-007 5.08224e-007 5.21538e-007 -4.35899e-007 5.08224e-007 5.21538e-007 -4.35899e-007 5.08224e-007 5.21538e-007 -4.35899e-007 5.08224e-007 5.21538e-007 -2.70078 15.4376 1.34574 51.4826 -1.44232 9.39048 15.774 28.9065 56.4062 8.7207 7.851 -9.16232 -0 0 3.18055e-015 -3.18055e-015 0 -0 8.47453e-007 1.10124e-006 -9.68551e-007 -0 0 3.18055e-015 -3.18055e-015 0 -0 0 0 -0 8.47453e-007 1.10124e-006 -9.68551e-007 -3.18055e-015 0 -0 0 0 -0 8.47453e-007 1.10124e-006 -9.68551e-007 -0 0 3.18055e-015 -3.18055e-015 0 -0 0 0 -0 8.47453e-007 1.10124e-006 -9.68551e-007 -3.18055e-015 0 -0 0 0 -0 8.47453e-007 1.10124e-006 -9.68551e-007 8.32545 -43.3643 16.1851 4.8989 50.0742 -2.30604 -12.2423 -20.6234 2.33263 -7.09662 -43.5682 -16.0182 -5.31522 50.3504 2.58111 11.3103 -21.0198 -2.51365 
-0.717355 84.188 5.85394 0 13.5098 -0 -0.612672 -3.0199 -0.307295 -1.24417 -6.03626 -0.648314 -1.24418 -6.03626 -0.648315 6.24111e-005 -0.718513 3.6692e-006 1.19135e-006 -0.663488 3.34578e-007 2.51373 15.0409 -1.84294 -51.2685 -1.42306 -8.52229 -16.4347 30.6199 -57.3803 -7.29213 6.26752 9.39654 -1.11477e-007 4.22354e-006 -2.71183e-006 -0 0 1.59028e-015 -7.55444e-007 -3.20595e-006 3.75729e-006 -6.36111e-015 -3.18055e-015 -3.18055e-015 -1.11477e-007 4.22354e-006 -2.71183e-006 -0 0 6.36111e-015 -7.55444e-007 -3.20595e-006 3.75729e-006 -1.11477e-007 4.22354e-006 -2.71183e-006 -0 0 6.36111e-015 -7.55444e-007 -3.20595e-006 3.75729e-006 -6.36111e-015 -3.18055e-015 -3.18055e-015 -1.11477e-007 4.22354e-006 -2.71183e-006 -0 0 6.36111e-015 -7.55444e-007 -3.20595e-006 3.75729e-006 -1.11477e-007 4.22354e-006 -2.71183e-006 -0 0 6.36111e-015 -7.55444e-007 -3.20595e-006 3.75729e-006 -2.94765 14.3079 1.70344 51.4825 -1.44233 9.39047 15.7111 28.7156 55.9208 8.73244 7.44668 -8.89201 8.42426e-007 1.10262e-006 -9.70638e-007 -3.18055e-015 -6.36111e-015 4.77083e-015 0 6.36111e-015 -0 -0 -6.36111e-015 -0 8.42426e-007 1.10262e-006 -9.70638e-007 1.76556e-031 3.18055e-015 -3.18055e-015 -3.18055e-015 6.36111e-015 3.18055e-015 8.42426e-007 1.10262e-006 -9.70638e-007 1.76556e-031 3.18055e-015 -3.18055e-015 -3.18055e-015 6.36111e-015 3.18055e-015 -0 -6.36111e-015 -0 8.42426e-007 1.10262e-006 -9.70638e-007 1.76556e-031 3.18055e-015 -3.18055e-015 -3.18055e-015 6.36111e-015 3.18055e-015 8.42426e-007 1.10262e-006 -9.70638e-007 1.76556e-031 3.18055e-015 -3.18055e-015 -3.18055e-015 6.36111e-015 3.18055e-015 9.00784 -41.4166 17.2656 4.71222 49.807 -2.16547 -12.2683 -20.5016 1.22874 -7.66903 -41.6477 -16.8748 -5.14064 50.0875 2.45224 11.3419 -20.9637 -1.60932 
-0.717558 84.2783 6.01686 0 12.0174 -0 -0.616357 -2.46347 -0.298957 -1.24731 -4.92356 -0.625317 -1.24731 -4.92356 -0.625318 1.55913e-005 -1.07561 -3.38725e-006 -3.11742e-007 -0.993256 1.98303e-009 2.77065 13.8761 -2.19136 -51.2685 -1.42306 -8.52228 -16.3866 30.4176 -56.8705 -7.35327 5.89343 9.11391 -4.30949e-007 5.09327e-007 5.23982e-007 -4.30949e-007 5.09327e-007 5.23982e-007 -4.30949e-007 5.09327e-007 5.23982e-007 3.18055e-015 6.36111e-015 -4.77083e-015 -4.30949e-007 5.09327e-007 5.23982e-007 -4.30949e-007 5.09327e-007 5.23982e-007 -4.30949e-007 5.09327e-007 5.23982e-007 -4.30949e-007 5.09327e-007 5.23982e-007 -4.30949e-007 5.09327e-007 5.23982e-007 -4.30949e-007 5.09327e-007 5.23982e-007 3.18055e-015 6.36111e-015 -4.77083e-015 -4.30949e-007 5.09327e-007 5.23982e-007 -4.30949e-007 5.09327e-007 5.23982e-007 -4.30949e-007 5.09327e-007 5.23982e-007 -4.30949e-007 5.09327e-007 5.23982e-007 -4.30949e-007 5.09327e-007 5.23982e-007 -4.30949e-007 5.09327e-007 5.23982e-007 -3.18649 13.1747 2.05503 51.4826 -1.44232 9.39047 15.6464 28.525 55.4357 8.74615 7.0423 -8.62173 -3.81302e-006 -3.18545e-006 -3.59943e-006 2.97574e-006 2.08157e-006 4.57231e-006 -4.6503e-006 -4.28934e-006 -2.62655e-006 -9.54166e-015 3.18055e-015 3.18055e-015 -3.81302e-006 -3.18545e-006 -3.59943e-006 2.97574e-006 2.08157e-006 4.57231e-006 -4.6503e-006 -4.28934e-006 -2.62655e-006 -3.81302e-006 -3.18545e-006 -3.59943e-006 2.97574e-006 2.08157e-006 4.57231e-006 -4.6503e-006 -4.28934e-006 -2.62655e-006 -9.54166e-015 3.18055e-015 3.18055e-015 -3.81302e-006 -3.18545e-006 -3.59943e-006 2.97574e-006 2.08157e-006 4.57231e-006 -4.6503e-006 -4.28934e-006 -2.62655e-006 -3.81302e-006 -3.18545e-006 -3.59943e-006 2.97574e-006 2.08157e-006 4.57231e-006 -4.6503e-006 -4.28934e-006 -2.62655e-006 9.62852 -39.4553 18.2911 4.52958 49.5469 -2.02852 -12.2943 -20.3814 0.123648 -8.19421 -39.7138 -17.6881 -4.96837 49.8295 2.32675 11.3752 -20.9093 -0.703928 
